<?xml version="1.0" encoding="UTF-8"?>
<!-- Technicomp Labs logo, CC-BY-SA-4.0 (COPYING.artwork). Generated from source/TECHNICOMP-LABS-LOGO.svg by tools/make-logos; do not edit. -->
<svg xmlns="http://www.w3.org/2000/svg" width="343" height="64" viewBox="-2.5554 0 3756.9219 701">
  <path fill="#D6E6F5" fill-rule="evenodd" transform="translate(0 0) scale(1) translate(-356 -26)" d="M 702 26 L 674 28 L 647 34 L 603 51 L 586 61 L 568 76 L 554 95 L 545 116 L 515 124 L 483 144 L 460 169 L 445 195 L 436 225 L 434 247 L 400 269 L 386 284 L 374 302 L 361 332 L 356 363 L 360 395 L 374 425 L 367 439 L 362 457 L 361 474 L 365 495 L 371 509 L 381 524 L 400 542 L 425 555 L 432 585 L 450 615 L 469 634 L 490 648 L 515 658 L 541 662 L 549 681 L 556 691 L 580 710 L 615 722 L 650 727 L 690 726 L 719 719 L 739 708 L 753 692 L 760 672 L 760 574 L 756 563 L 746 554 L 697 543 L 663 525 L 649 514 L 626 489 L 604 450 L 582 448 L 573 452 L 568 458 L 563 471 L 562 492 L 564 502 L 571 519 L 581 534 L 622 571 L 629 583 L 632 593 L 632 609 L 623 619 L 619 629 L 620 646 L 629 659 L 645 666 L 653 666 L 664 662 L 674 653 L 678 645 L 679 631 L 674 618 L 666 610 L 656 605 L 654 583 L 644 560 L 630 544 L 610 529 L 594 510 L 587 490 L 588 477 L 590 475 L 609 505 L 638 535 L 661 551 L 681 561 L 707 570 L 719 581 L 724 592 L 724 670 L 715 684 L 704 690 L 688 694 L 649 695 L 623 691 L 597 682 L 582 669 L 578 661 L 606 653 L 602 642 L 602 623 L 572 629 L 550 629 L 525 624 L 503 613 L 480 592 L 467 570 L 463 553 L 478 542 L 467 521 L 458 524 L 439 523 L 423 514 L 409 499 L 401 482 L 399 460 L 403 444 L 416 424 L 405 410 L 399 398 L 394 377 L 394 360 L 397 344 L 406 322 L 415 308 L 429 293 L 441 284 L 457 277 L 479 277 L 488 258 L 471 246 L 472 230 L 477 214 L 495 184 L 514 166 L 544 151 L 571 148 L 605 156 L 604 141 L 608 126 L 583 117 L 589 107 L 602 94 L 635 75 L 655 68 L 685 62 L 710 63 L 717 66 L 724 73 L 727 81 L 726 181 L 723 189 L 712 202 L 668 221 L 630 249 L 607 276 L 589 306 L 588 291 L 596 268 L 603 258 L 642 221 L 654 195 L 656 174 L 665 170 L 673 163 L 679 150 L 678 135 L 674 127 L 664 118 L 653 114 L 646 114 L 630 121 L 622 131 L 619 144 L 625 162 L 633 170 L 631 189 L 620 210 L 591 235 L 578 251 L 570 266 L 563 291 L 563 310 L 570 329 L 582 336 L 593 336 L 603 333 L 614 309 L 627 288 L 659 255 L 693 235 L 718 227 L 745 223 L 757 214 L 760 206 L 760 68 L 758 60 L 749 45 L 738 36 L 722 29 Z M 829 26 L 812 29 L 794 37 L 783 47 L 775 63 L 774 207 L 779 217 L 789 223 L 813 226 L 841 235 L 876 256 L 897 276 L 909 291 L 919 307 L 930 333 L 952 336 L 963 330 L 968 321 L 971 308 L 970 287 L 965 269 L 950 243 L 915 211 L 904 192 L 902 169 L 910 162 L 915 151 L 915 137 L 905 121 L 889 114 L 881 114 L 870 118 L 858 131 L 856 151 L 861 162 L 878 174 L 880 195 L 892 221 L 930 257 L 937 267 L 945 287 L 946 303 L 944 306 L 926 275 L 897 243 L 866 221 L 825 204 L 813 193 L 809 185 L 807 176 L 807 81 L 810 73 L 817 66 L 828 62 L 857 63 L 896 73 L 931 92 L 946 107 L 952 117 L 927 126 L 931 141 L 930 156 L 964 148 L 988 150 L 1005 156 L 1019 164 L 1039 182 L 1055 207 L 1062 229 L 1063 246 L 1046 257 L 1056 278 L 1066 276 L 1078 277 L 1102 290 L 1117 305 L 1129 323 L 1137 343 L 1140 358 L 1138 388 L 1130 408 L 1118 424 L 1131 444 L 1135 459 L 1134 479 L 1127 496 L 1111 514 L 1102 520 L 1091 524 L 1066 522 L 1056 542 L 1071 553 L 1067 569 L 1061 581 L 1048 598 L 1027 615 L 1008 624 L 984 629 L 954 628 L 932 623 L 932 640 L 928 653 L 955 661 L 951 669 L 936 682 L 919 689 L 886 695 L 846 694 L 821 686 L 815 681 L 809 668 L 809 596 L 814 582 L 825 571 L 853 561 L 873 551 L 897 534 L 925 505 L 944 476 L 946 489 L 939 510 L 932 520 L 907 541 L 892 557 L 880 581 L 878 605 L 868 610 L 862 616 L 856 628 L 857 646 L 863 656 L 877 665 L 890 666 L 904 660 L 911 653 L 916 641 L 914 623 L 902 609 L 902 592 L 906 580 L 921 561 L 950 537 L 961 521 L 969 502 L 971 492 L 970 470 L 966 459 L 959 451 L 952 448 L 930 450 L 920 470 L 903 495 L 882 516 L 863 530 L 824 547 L 790 553 L 780 560 L 774 573 L 774 675 L 781 694 L 796 710 L 821 722 L 851 727 L 883 727 L 922 721 L 956 708 L 978 690 L 984 682 L 993 662 L 1022 657 L 1049 645 L 1066 633 L 1087 611 L 1101 586 L 1108 555 L 1131 544 L 1146 532 L 1158 518 L 1168 499 L 1173 479 L 1173 459 L 1161 424 L 1171 405 L 1176 388 L 1178 355 L 1172 327 L 1159 299 L 1146 281 L 1133 268 L 1117 256 L 1100 247 L 1097 217 L 1086 186 L 1072 164 L 1053 144 L 1023 125 L 990 116 L 981 95 L 973 83 L 957 67 L 934 52 L 915 43 L 882 32 L 855 27 Z M 1023 207 L 1012 203 L 995 205 L 983 214 L 976 229 L 976 239 L 981 251 L 990 260 L 1005 265 L 1017 290 L 1022 307 L 1021 320 L 1017 329 L 1007 339 L 994 345 L 935 346 L 939 370 L 994 370 L 1008 367 L 1025 358 L 1038 344 L 1046 324 L 1046 303 L 1038 279 L 1027 259 L 1037 244 L 1038 228 L 1032 215 Z M 515 205 L 503 214 L 496 228 L 498 246 L 507 258 L 496 277 L 488 299 L 487 322 L 491 336 L 506 356 L 529 368 L 541 370 L 595 370 L 599 346 L 540 345 L 525 338 L 513 323 L 511 313 L 513 299 L 529 265 L 544 260 L 553 251 L 558 238 L 556 222 L 547 210 L 531 203 Z M 761 236 L 746 239 L 732 248 L 711 272 L 697 298 L 761 298 Z M 773 237 L 773 298 L 837 298 L 821 269 L 801 247 L 786 238 Z M 726 241 L 705 247 L 679 261 L 656 280 L 638 303 L 660 299 L 685 298 L 702 266 Z M 809 241 L 833 267 L 850 298 L 873 299 L 895 303 L 883 286 L 856 262 L 831 248 Z M 679 310 L 650 312 L 628 320 L 616 351 L 612 371 L 612 384 L 667 383 L 669 352 Z M 693 310 L 687 324 L 682 345 L 679 384 L 760 384 L 761 311 Z M 773 311 L 774 384 L 855 384 L 852 345 L 842 310 Z M 856 310 L 855 313 L 865 352 L 867 383 L 922 384 L 920 359 L 906 320 L 889 313 Z M 1115 382 L 1110 370 L 1102 362 L 1083 356 L 1066 362 L 1058 370 L 1054 379 L 1049 381 L 940 381 L 940 399 L 1055 400 L 1058 406 L 1068 415 L 1075 418 L 1088 419 L 1098 416 L 1109 407 L 1115 394 Z M 418 388 L 420 399 L 424 406 L 434 415 L 445 419 L 454 419 L 467 414 L 479 400 L 594 399 L 594 381 L 481 381 L 475 369 L 468 362 L 451 356 L 439 358 L 428 365 L 420 377 Z M 611 396 L 616 430 L 627 457 L 647 464 L 679 466 L 670 434 L 667 396 Z M 679 396 L 681 430 L 691 466 L 761 466 L 761 396 Z M 773 396 L 773 466 L 844 465 L 853 429 L 855 396 Z M 868 396 L 864 434 L 856 466 L 881 465 L 905 459 L 918 429 L 923 396 Z M 595 412 L 549 412 L 525 418 L 505 430 L 493 442 L 484 456 L 478 474 L 478 499 L 483 516 L 498 541 L 493 553 L 495 573 L 500 581 L 511 589 L 531 591 L 543 585 L 553 571 L 554 554 L 550 544 L 543 536 L 532 530 L 519 529 L 513 521 L 503 494 L 503 482 L 507 469 L 521 451 L 538 441 L 557 437 L 601 437 Z M 939 412 L 933 437 L 977 437 L 995 441 L 1009 449 L 1021 461 L 1026 470 L 1029 480 L 1029 496 L 1018 524 L 1014 529 L 1002 530 L 992 535 L 983 545 L 979 557 L 981 572 L 992 586 L 1003 591 L 1020 590 L 1028 586 L 1035 579 L 1040 569 L 1041 558 L 1035 542 L 1048 520 L 1055 496 L 1055 477 L 1050 459 L 1039 441 L 1027 429 L 1009 418 L 984 412 Z M 896 474 L 870 478 L 851 478 L 832 512 L 809 535 L 832 528 L 860 512 L 887 487 Z M 638 474 L 655 496 L 675 513 L 699 527 L 725 536 L 701 511 L 683 478 L 653 477 Z M 773 539 L 787 538 L 803 528 L 823 506 L 838 478 L 774 478 Z M 696 478 L 711 506 L 732 529 L 747 538 L 761 540 L 761 478 Z"/>
  <path fill="#D6E6F5" fill-rule="evenodd" transform="translate(1018.28 133.19) scale(1.9062) translate(-50 -749)" d="M 1149 764 L 1143 781 L 1143 887 L 1183 887 L 1184 790 L 1194 794 L 1204 804 L 1209 814 L 1210 887 L 1251 887 L 1251 817 L 1257 804 L 1266 795 L 1278 789 L 1282 789 L 1287 797 L 1287 887 L 1326 887 L 1326 787 L 1319 768 L 1306 755 L 1290 749 L 1268 750 L 1250 758 L 1230 775 L 1208 757 L 1185 749 L 1165 751 L 1155 757 Z M 1335 749 L 1336 783 L 1431 783 L 1437 786 L 1441 792 L 1440 806 L 1435 811 L 1429 813 L 1335 813 L 1335 887 L 1374 887 L 1375 846 L 1449 845 L 1465 838 L 1478 824 L 1484 806 L 1483 786 L 1476 769 L 1462 756 L 1440 749 Z M 213 773 L 200 799 L 197 822 L 199 839 L 204 854 L 219 873 L 233 882 L 250 887 L 345 887 L 345 855 L 266 855 L 250 848 L 245 842 L 243 835 L 342 834 L 342 802 L 245 802 L 244 800 L 255 787 L 267 782 L 346 782 L 346 749 L 251 750 L 232 757 Z M 644 750 L 605 749 L 604 802 L 534 802 L 533 750 L 495 750 L 495 887 L 533 887 L 533 836 L 535 834 L 604 834 L 605 887 L 644 887 Z M 668 762 L 656 780 L 652 795 L 652 887 L 690 887 L 691 798 L 699 786 L 712 781 L 735 782 L 741 785 L 750 797 L 751 887 L 789 887 L 789 795 L 786 782 L 778 767 L 766 756 L 746 749 L 695 749 L 684 752 Z M 797 749 L 797 887 L 836 887 L 836 750 Z M 864 762 L 856 770 L 848 783 L 841 811 L 841 828 L 844 844 L 855 866 L 870 879 L 892 887 L 975 887 L 975 855 L 908 855 L 899 853 L 885 842 L 880 831 L 879 813 L 886 794 L 894 786 L 902 782 L 976 781 L 976 749 L 893 749 L 877 754 Z M 371 764 L 362 774 L 353 790 L 348 811 L 348 830 L 351 845 L 364 869 L 378 880 L 399 887 L 486 888 L 487 855 L 413 855 L 406 853 L 394 844 L 389 835 L 387 812 L 389 803 L 395 793 L 402 787 L 412 783 L 487 783 L 487 750 L 408 749 L 390 753 Z M 51 749 L 50 783 L 102 784 L 102 888 L 142 887 L 142 784 L 199 783 L 199 750 Z M 996 764 L 984 779 L 975 806 L 977 843 L 983 858 L 994 872 L 1011 883 L 1025 887 L 1078 888 L 1102 882 L 1122 867 L 1129 857 L 1135 841 L 1137 809 L 1131 784 L 1124 772 L 1113 761 L 1099 753 L 1084 749 L 1028 749 L 1011 754 Z M 1025 787 L 1040 781 L 1073 781 L 1085 785 L 1093 793 L 1099 810 L 1098 831 L 1092 844 L 1083 852 L 1075 855 L 1036 855 L 1026 851 L 1016 840 L 1012 827 L 1013 806 L 1016 798 Z M 656 976 L 680 977 L 689 961 L 737 961 L 747 977 L 770 977 L 734 912 L 726 905 L 719 903 L 706 903 L 698 906 L 692 912 Z M 779 904 L 779 977 L 849 977 L 859 973 L 865 967 L 868 959 L 868 950 L 861 939 L 867 931 L 867 917 L 861 908 L 848 903 Z M 882 911 L 878 920 L 878 930 L 881 938 L 887 944 L 903 948 L 947 948 L 950 950 L 951 955 L 947 959 L 879 959 L 879 977 L 952 977 L 963 973 L 969 967 L 972 960 L 972 948 L 965 936 L 951 931 L 902 931 L 899 928 L 899 924 L 904 920 L 972 920 L 971 903 L 897 903 L 888 906 Z M 568 904 L 568 960 L 576 972 L 590 977 L 647 977 L 647 959 L 595 958 L 591 953 L 591 905 Z M 801 921 L 843 920 L 847 924 L 847 928 L 843 932 L 802 932 Z M 699 942 L 710 923 L 714 921 L 727 943 L 700 944 Z M 100 929 L 100 944 L 542 943 L 541 929 Z M 992 929 L 993 944 L 1435 944 L 1435 929 Z M 801 948 L 841 947 L 847 951 L 847 956 L 844 959 L 802 960 Z"/>
</svg>
